<?xml version="1.0" encoding="UTF-8" ?>
<!DOCTYPE svg PUBLIC "-//W3C//DTD SVG 1.1//EN" "http://www.w3.org/Graphics/SVG/1.1/DTD/svg11.dtd">
<svg width="128pt" height="128pt" viewBox="0 0 128 128" version="1.1" xmlns="http://www.w3.org/2000/svg">
<g id="#ebededff">
<path fill="#ebeded" opacity="1.00" d=" M 68.30 27.17 C 72.92 16.48 86.75 11.32 97.43 15.63 C 109.41 19.73 115.33 35.77 108.53 46.56 C 105.99 51.47 100.94 54.08 96.11 56.23 C 100.56 60.01 106.19 58.90 111.47 58.60 C 112.53 63.58 106.35 65.55 102.61 66.53 C 89.65 69.30 79.58 57.97 67.10 57.41 C 67.51 53.57 71.21 52.98 74.37 52.67 C 68.28 45.84 64.34 36.09 68.30 27.17 M 84.29 23.15 C 79.67 25.97 81.39 32.35 82.27 36.70 C 83.85 41.42 85.52 47.87 91.00 49.23 C 96.73 49.61 98.30 42.49 96.60 38.15 C 95.10 32.09 92.52 21.35 84.29 23.15 Z" />
<path fill="#ebeded" opacity="1.00" d=" M 15.77 22.90 C 20.07 17.53 27.65 17.75 33.85 18.38 C 36.66 18.43 40.42 21.72 37.15 24.02 C 33.81 26.84 34.35 31.27 34.64 35.17 C 38.23 35.17 41.82 35.18 45.41 35.19 C 45.98 30.46 45.69 25.33 41.15 22.63 C 43.05 17.85 48.71 18.08 53.00 18.07 C 57.15 17.98 62.34 18.33 63.97 22.91 C 62.49 24.04 60.99 25.16 59.51 26.29 C 59.00 34.51 58.18 42.82 59.14 51.04 C 59.35 53.84 64.06 55.31 62.37 58.30 C 59.14 61.45 54.11 60.81 49.97 60.90 C 46.91 60.70 42.40 60.70 41.41 57.04 C 45.20 52.80 46.14 47.32 45.40 41.80 C 41.83 42.04 37.80 40.98 34.60 42.97 C 33.38 47.73 34.60 52.45 37.69 56.17 C 37.79 60.60 31.33 60.75 28.01 60.92 C 24.16 60.74 18.67 61.38 16.39 57.61 C 15.63 54.66 20.33 53.78 20.38 50.86 C 21.06 42.86 20.71 34.80 20.52 26.78 C 18.96 25.46 17.32 24.24 15.77 22.90 Z" />
<path fill="#ebeded" opacity="1.00" d=" M 23.43 73.46 C 32.13 67.77 47.16 68.79 51.99 79.03 C 55.21 91.03 47.20 102.85 38.38 110.27 C 34.90 113.80 30.38 110.41 27.31 108.15 C 30.81 105.14 34.10 101.66 35.03 96.96 C 32.21 96.85 29.34 97.03 26.56 96.43 C 17.38 93.44 14.73 78.58 23.43 73.46 M 33.35 79.39 C 29.16 82.74 34.56 91.90 39.45 88.41 C 41.12 84.67 38.17 76.85 33.35 79.39 Z" />
<path fill="#ebeded" opacity="1.00" d=" M 80.42 76.35 C 82.79 73.80 86.60 73.65 89.78 72.82 C 89.76 77.83 89.70 82.86 90.12 87.86 C 94.95 88.24 99.78 88.21 104.62 88.22 C 103.93 91.39 102.97 94.52 101.40 97.38 C 97.53 96.88 93.62 96.77 89.73 96.91 C 89.85 100.58 90.38 104.25 90.18 107.92 C 88.07 111.09 83.77 111.18 80.43 112.09 C 80.49 107.00 80.67 101.90 80.40 96.81 C 75.51 96.83 70.63 96.85 65.74 96.74 C 66.63 93.82 67.67 90.94 68.89 88.14 C 72.75 88.17 76.60 88.18 80.46 88.19 C 80.60 84.24 80.17 80.29 80.42 76.35 Z" />
</g>
<g id="#737370ff">
<path fill="#737370" opacity="1.00" d=" M 14.43 6.73 C 16.88 5.98 19.47 6.02 22.00 6.00 C 51.02 6.04 80.03 5.93 109.04 6.05 C 116.08 5.63 122.37 11.91 121.94 18.95 C 122.04 48.98 122.03 79.01 121.95 109.04 C 122.37 116.09 116.09 122.37 109.04 121.94 C 79.02 122.04 48.99 122.03 18.96 121.95 C 11.89 122.40 5.60 116.11 6.05 109.04 C 5.97 79.01 5.97 48.98 6.05 18.96 C 5.85 13.62 9.23 8.28 14.43 6.73 M 68.30 27.17 C 64.34 36.09 68.28 45.84 74.37 52.67 C 71.21 52.98 67.51 53.57 67.10 57.41 C 79.58 57.97 89.65 69.30 102.61 66.53 C 106.35 65.55 112.53 63.58 111.47 58.60 C 106.19 58.90 100.56 60.01 96.11 56.23 C 100.94 54.08 105.99 51.47 108.53 46.56 C 115.33 35.77 109.41 19.73 97.43 15.63 C 86.75 11.32 72.92 16.48 68.30 27.17 M 15.77 22.90 C 17.32 24.24 18.96 25.46 20.52 26.78 C 20.71 34.80 21.06 42.86 20.38 50.86 C 20.33 53.78 15.63 54.66 16.39 57.61 C 18.67 61.38 24.16 60.74 28.01 60.92 C 31.33 60.75 37.79 60.60 37.69 56.17 C 34.60 52.45 33.38 47.73 34.60 42.97 C 37.80 40.98 41.83 42.04 45.40 41.80 C 46.14 47.32 45.20 52.80 41.41 57.04 C 42.40 60.70 46.91 60.70 49.97 60.90 C 54.11 60.81 59.14 61.45 62.37 58.30 C 64.06 55.31 59.35 53.84 59.14 51.04 C 58.18 42.82 59.00 34.51 59.51 26.29 C 60.99 25.16 62.49 24.04 63.97 22.91 C 62.34 18.33 57.15 17.98 53.00 18.07 C 48.71 18.08 43.05 17.85 41.15 22.63 C 45.69 25.33 45.98 30.46 45.41 35.19 C 41.82 35.18 38.23 35.17 34.64 35.17 C 34.35 31.27 33.81 26.84 37.15 24.02 C 40.42 21.72 36.66 18.43 33.85 18.38 C 27.65 17.75 20.07 17.53 15.77 22.90 M 23.43 73.46 C 14.73 78.58 17.38 93.44 26.56 96.43 C 29.34 97.03 32.21 96.85 35.03 96.96 C 34.10 101.66 30.81 105.14 27.31 108.15 C 30.38 110.41 34.90 113.80 38.38 110.27 C 47.20 102.85 55.21 91.03 51.99 79.03 C 47.16 68.79 32.13 67.77 23.43 73.46 M 80.42 76.35 C 80.17 80.29 80.60 84.24 80.46 88.19 C 76.60 88.18 72.75 88.17 68.89 88.14 C 67.67 90.94 66.63 93.82 65.74 96.74 C 70.63 96.85 75.51 96.83 80.40 96.81 C 80.67 101.90 80.49 107.00 80.43 112.09 C 83.77 111.18 88.07 111.09 90.18 107.92 C 90.38 104.25 89.85 100.58 89.73 96.91 C 93.62 96.77 97.53 96.88 101.40 97.38 C 102.97 94.52 103.93 91.39 104.62 88.22 C 99.78 88.21 94.95 88.24 90.12 87.86 C 89.70 82.86 89.76 77.83 89.78 72.82 C 86.60 73.65 82.79 73.80 80.42 76.35 Z" />
<path fill="#737370" opacity="1.00" d=" M 84.29 23.15 C 92.52 21.35 95.10 32.09 96.60 38.15 C 98.30 42.49 96.73 49.61 91.00 49.23 C 85.52 47.87 83.85 41.42 82.27 36.70 C 81.39 32.35 79.67 25.97 84.29 23.15 Z" />
<path fill="#737370" opacity="1.00" d=" M 33.35 79.39 C 38.17 76.85 41.12 84.67 39.45 88.41 C 34.56 91.90 29.16 82.74 33.35 79.39 Z" />
</g>
</svg>
